<svg width="58" height="77" viewBox="0 0 58 77" fill="none" xmlns="http://www.w3.org/2000/svg">
<path d="M46.1386 31.3643H39.9989L43.8817 8.7413C43.8817 7.61173 42.9619 6.69629 41.827 6.69629H8.90483C7.76988 6.69629 6.85008 7.61173 6.85008 8.7413L0.875 42.5321C0.875 43.0969 1.33418 43.5539 1.90165 43.5539H13.2165V74.2908C13.2165 76.2539 15.7275 77.0889 16.913 75.5195L47.7804 34.638C48.7984 33.29 47.8324 31.3657 46.1386 31.3657V31.3643Z" fill="#00EE80"/>
<path d="M48.3863 26.6341H54.7047V26.6357H54.9314C56.5504 26.6357 57.4731 28.4823 56.5004 29.7757L56.6816 29.912L56.5004 29.7758L23.5946 73.5399C22.4616 75.0461 20.0619 74.2444 20.0619 72.3608V39.4565V39.2298H19.8352H7.77316C7.29956 39.2298 6.91556 38.852 6.90563 38.3814L13.2717 2.22853L13.2751 2.20902V2.18921C13.2751 1.10532 14.154 0.22672 15.2388 0.22672H50.335C51.4136 0.22672 52.2886 1.09522 52.2987 2.17047L48.1628 26.3692L48.1175 26.6341H48.3863Z" fill="#033D3C" stroke="url(#paint0_linear_997_8950)" stroke-width="0.45344"/>
<defs>
<linearGradient id="paint0_linear_997_8950" x1="4.91244" y1="25.5471" x2="51.2208" y2="57.2201" gradientUnits="userSpaceOnUse">
<stop stop-color="#A8FF44"/>
<stop offset="1" stop-color="#00EE80"/>
</linearGradient>
</defs>
</svg>
