<svg width="25" height="24" viewBox="0 0 25 24" fill="none" xmlns="http://www.w3.org/2000/svg">
<path d="M22.21 7.38006L17.12 2.29006C16.9326 2.10381 16.6792 1.99927 16.415 1.99927C16.1508 1.99927 15.8974 2.10381 15.71 2.29006C15.6163 2.38302 15.5419 2.49362 15.4911 2.61548C15.4404 2.73734 15.4142 2.86805 15.4142 3.00006C15.4142 3.13207 15.4404 3.26278 15.4911 3.38464C15.5419 3.5065 15.6163 3.6171 15.71 3.71006L17.5 5.54006L12.08 11.0001L11.08 10.0001C10.8013 9.72038 10.4701 9.49847 10.1055 9.34705C9.74081 9.19564 9.34985 9.11769 8.95501 9.11769C8.56017 9.11769 8.16921 9.19564 7.80455 9.34705C7.4399 9.49847 7.10872 9.72038 6.83001 10.0001L3.38001 13.4201C3.10016 13.6996 2.87834 14.0316 2.72732 14.3972C2.57629 14.7627 2.49904 15.1545 2.50001 15.5501V19.0001C2.50001 19.7957 2.81608 20.5588 3.37869 21.1214C3.9413 21.684 4.70436 22.0001 5.50001 22.0001H8.95001C9.34553 22.001 9.73733 21.9238 10.1029 21.7728C10.4684 21.6217 10.8005 21.3999 11.08 21.1201L14.5 17.6901C14.7797 17.4114 15.0016 17.0802 15.153 16.7155C15.3044 16.3509 15.3824 15.9599 15.3824 15.5651C15.3824 15.1702 15.3044 14.7793 15.153 14.4146C15.0016 14.0499 14.7797 13.7188 14.5 13.4401L13.5 12.4401L18.96 7.00006L20.79 8.83006C20.883 8.92379 20.9936 8.99818 21.1154 9.04895C21.2373 9.09972 21.368 9.12586 21.5 9.12586C21.632 9.12586 21.7627 9.09972 21.8846 9.04895C22.0064 8.99818 22.117 8.92379 22.21 8.83006C22.3083 8.73664 22.3867 8.62419 22.4402 8.49955C22.4937 8.37492 22.5213 8.2407 22.5213 8.10506C22.5213 7.96942 22.4937 7.8352 22.4402 7.71057C22.3867 7.58593 22.3083 7.47348 22.21 7.38006V7.38006ZM13.1 16.2701L9.66001 19.7101C9.56657 19.8027 9.45575 19.8761 9.33392 19.9258C9.21208 19.9756 9.08162 20.0008 8.95001 20.0001H5.50001C5.23479 20.0001 4.98044 19.8947 4.7929 19.7072C4.60537 19.5196 4.50001 19.2653 4.50001 19.0001V15.5501C4.49925 15.4185 4.52447 15.288 4.57424 15.1662C4.624 15.0443 4.69733 14.9335 4.79001 14.8401L8.23001 11.4001C8.41737 11.2138 8.67082 11.1093 8.93501 11.1093C9.1992 11.1093 9.45265 11.2138 9.64001 11.4001L10.64 12.4001L9.75001 13.3001C9.56376 13.4874 9.45922 13.7409 9.45922 14.0051C9.45922 14.2692 9.56376 14.5227 9.75001 14.7101C9.84815 14.8077 9.96548 14.8838 10.0946 14.9338C10.2237 14.9837 10.3617 15.0063 10.5 15.0001C10.7623 14.999 11.0137 14.8948 11.2 14.7101L12.1 13.8201L13.1 14.8201C13.1983 14.9135 13.2767 15.0259 13.3302 15.1506C13.3837 15.2752 13.4113 15.4094 13.4113 15.5451C13.4113 15.6807 13.3837 15.8149 13.3302 15.9396C13.2767 16.0642 13.1983 16.1766 13.1 16.2701Z" fill="black"/>
</svg>
