<svg width="25" height="24" viewBox="0 0 25 24" fill="none" xmlns="http://www.w3.org/2000/svg">
<path d="M6.5 10.9999C6.30222 10.9999 6.10888 11.0586 5.94443 11.1685C5.77998 11.2784 5.65181 11.4345 5.57612 11.6173C5.50043 11.8 5.48063 12.0011 5.51921 12.195C5.5578 12.389 5.65304 12.5672 5.79289 12.707C5.93275 12.8469 6.11093 12.9421 6.30491 12.9807C6.49889 13.0193 6.69996 12.9995 6.88268 12.9238C7.06541 12.8481 7.22159 12.72 7.33147 12.5555C7.44135 12.3911 7.5 12.1977 7.5 11.9999C7.5 11.7347 7.39464 11.4804 7.20711 11.2928C7.01957 11.1053 6.76522 10.9999 6.5 10.9999ZM12.36 9.44994L5.21 2.28994C5.11676 2.1967 5.00607 2.12274 4.88425 2.07228C4.76243 2.02182 4.63186 1.99585 4.5 1.99585C4.36814 1.99585 4.23757 2.02182 4.11575 2.07228C3.99393 2.12274 3.88324 2.1967 3.79 2.28994C3.6017 2.47824 3.49591 2.73364 3.49591 2.99994C3.49591 3.26624 3.6017 3.52164 3.79 3.70994L5.09 4.99994H4.5C3.70435 4.99994 2.94129 5.31601 2.37868 5.87862C1.81607 6.44123 1.5 7.20429 1.5 7.99994V15.9999C1.5 16.7956 1.81607 17.5587 2.37868 18.1213C2.94129 18.6839 3.70435 18.9999 4.5 18.9999H19.09L21.79 21.7099C21.883 21.8037 21.9936 21.8781 22.1154 21.9288C22.2373 21.9796 22.368 22.0057 22.5 22.0057C22.632 22.0057 22.7627 21.9796 22.8846 21.9288C23.0064 21.8781 23.117 21.8037 23.21 21.7099C23.3037 21.617 23.3781 21.5064 23.4289 21.3845C23.4797 21.2627 23.5058 21.132 23.5058 20.9999C23.5058 20.8679 23.4797 20.7372 23.4289 20.6154C23.3781 20.4935 23.3037 20.3829 23.21 20.2899L12.36 9.44994ZM11.62 11.5399L12.96 12.8799C12.8185 12.9563 12.6608 12.9975 12.5 12.9999C12.2348 12.9999 11.9804 12.8946 11.7929 12.707C11.6054 12.5195 11.5 12.2652 11.5 11.9999C11.5024 11.8392 11.5436 11.6814 11.62 11.5399ZM4.5 16.9999C4.23478 16.9999 3.98043 16.8946 3.79289 16.7071C3.60536 16.5195 3.5 16.2652 3.5 15.9999V7.99994C3.5 7.73473 3.60536 7.48037 3.79289 7.29284C3.98043 7.1053 4.23478 6.99994 4.5 6.99994H7.09L10.19 10.0999C9.74713 10.6344 9.50328 11.3059 9.5 11.9999C9.5 12.7956 9.81607 13.5587 10.3787 14.1213C10.9413 14.6839 11.7044 14.9999 12.5 14.9999C13.1941 14.9967 13.8656 14.7528 14.4 14.3099L17.09 16.9999H4.5ZM20.5 4.99994H13.16C12.8948 4.99994 12.6404 5.1053 12.4529 5.29284C12.2654 5.48037 12.16 5.73473 12.16 5.99994C12.16 6.26516 12.2654 6.51951 12.4529 6.70705C12.6404 6.89458 12.8948 6.99994 13.16 6.99994H20.5C20.7652 6.99994 21.0196 7.1053 21.2071 7.29284C21.3946 7.48037 21.5 7.73473 21.5 7.99994V15.3399C21.5 15.6052 21.6054 15.8595 21.7929 16.0471C21.9804 16.2346 22.2348 16.3399 22.5 16.3399C22.7652 16.3399 23.0196 16.2346 23.2071 16.0471C23.3946 15.8595 23.5 15.6052 23.5 15.3399V7.99994C23.5 7.20429 23.1839 6.44123 22.6213 5.87862C22.0587 5.31601 21.2956 4.99994 20.5 4.99994ZM19.5 11.9999C19.5 11.8022 19.4414 11.6088 19.3315 11.4444C19.2216 11.2799 19.0654 11.1517 18.8827 11.0761C18.7 11.0004 18.4989 10.9806 18.3049 11.0192C18.1109 11.0577 17.9327 11.153 17.7929 11.2928C17.653 11.4327 17.5578 11.6109 17.5192 11.8049C17.4806 11.9988 17.5004 12.1999 17.5761 12.3826C17.6518 12.5654 17.78 12.7215 17.9444 12.8314C18.1089 12.9413 18.3022 12.9999 18.5 12.9999C18.7652 12.9999 19.0196 12.8946 19.2071 12.707C19.3946 12.5195 19.5 12.2652 19.5 11.9999Z" fill="black"/>
</svg>
