<svg width="25" height="24" viewBox="0 0 25 24" fill="none" xmlns="http://www.w3.org/2000/svg">
<path d="M9.17015 4.22985C9.33203 4.27241 9.502 4.27366 9.66448 4.23347C9.82697 4.19329 9.97677 4.11296 10.1001 3.99985H15.2001L13.9301 8.73985C13.8897 8.88818 13.884 9.04383 13.9135 9.19472C13.943 9.34561 14.0068 9.48767 14.1001 9.60985C14.1933 9.73087 14.3129 9.82894 14.4499 9.89654C14.5868 9.96415 14.7374 9.99949 14.8901 9.99986H18.5001L17.3701 11.2399C17.1929 11.4363 17.1007 11.695 17.1139 11.9593C17.127 12.2236 17.2443 12.4719 17.4401 12.6499C17.6235 12.8166 17.8623 12.9092 18.1101 12.9099C18.2497 12.9095 18.3876 12.88 18.5151 12.8232C18.6425 12.7663 18.7567 12.6834 18.8501 12.5799L21.5001 9.66986C21.6314 9.52453 21.7172 9.34385 21.7467 9.15024C21.7762 8.95663 21.7483 8.75861 21.6663 8.58075C21.5843 8.40289 21.4518 8.25303 21.2854 8.14977C21.119 8.0465 20.9259 7.99437 20.7301 7.99985H16.1901L17.5001 3.25985C17.5392 3.11077 17.5433 2.95468 17.5121 2.80377C17.4808 2.65285 17.4152 2.51119 17.3201 2.38985C17.2239 2.26475 17.0995 2.1642 16.957 2.09642C16.8144 2.02863 16.6579 1.99554 16.5001 1.99985H9.50015C9.27438 1.99212 9.05265 2.06105 8.87107 2.19543C8.68949 2.3298 8.55875 2.52169 8.50015 2.73985V2.99985C8.4285 3.25177 8.45855 3.52175 8.58384 3.75175C8.70912 3.98175 8.91964 4.15341 9.17015 4.22985ZM22.1701 20.2899L4.17015 2.28985C3.97553 2.14798 3.73625 2.0811 3.49628 2.10152C3.25631 2.12194 3.03177 2.22827 2.86392 2.40099C2.69607 2.5737 2.59619 2.80119 2.58264 3.04165C2.56909 3.2821 2.64277 3.51937 2.79015 3.70985L7.11015 7.99985L5.85015 12.7399C5.81108 12.8889 5.807 13.045 5.83823 13.1959C5.86945 13.3469 5.93513 13.4885 6.03015 13.6099C6.1233 13.7309 6.24294 13.8289 6.37988 13.8965C6.51682 13.9641 6.66743 13.9995 6.82015 13.9999H10.6601L8.85015 20.7399C8.79153 20.9573 8.80802 21.1881 8.89695 21.395C8.98588 21.6019 9.14204 21.7728 9.34015 21.8799C9.48757 21.9594 9.65262 22.0007 9.82015 21.9999C9.95969 21.9995 10.0976 21.97 10.2251 21.9132C10.3525 21.8563 10.4667 21.7734 10.5601 21.6699L15.4101 16.3299L20.7901 21.7099C20.8831 21.8036 20.9937 21.878 21.1156 21.9287C21.2374 21.9795 21.3681 22.0057 21.5001 22.0057C21.6322 22.0057 21.7629 21.9795 21.8847 21.9287C22.0066 21.878 22.1172 21.8036 22.2101 21.7099C22.3039 21.6169 22.3783 21.5063 22.429 21.3844C22.4798 21.2626 22.5059 21.1319 22.5059 20.9999C22.5059 20.8678 22.4798 20.7371 22.429 20.6153C22.3783 20.4934 22.3039 20.3828 22.2101 20.2899H22.1701ZM8.12015 11.9999L8.75015 9.65985L11.0901 11.9999H8.12015ZM11.8501 17.2799L12.8501 13.7199L14.0501 14.9099L11.8501 17.2799Z" fill="black"/>
</svg>
