<svg width="25" height="24" viewBox="0 0 25 24" fill="none" xmlns="http://www.w3.org/2000/svg">
<path d="M20.3699 8.59985C20.2954 8.42857 20.1744 8.28158 20.0206 8.17554C19.8668 8.06949 19.6865 8.00863 19.4999 7.99985H14.9199L16.1899 3.25985C16.2303 3.11153 16.236 2.95588 16.2065 2.80499C16.1771 2.6541 16.1132 2.51204 16.0199 2.38985C15.9267 2.26884 15.8071 2.17077 15.6701 2.10317C15.5332 2.03556 15.3826 2.00022 15.2299 1.99985H8.22988C8.00411 1.99212 7.78238 2.06105 7.6008 2.19543C7.41922 2.3298 7.28848 2.52169 7.22988 2.73985L4.54988 12.7399C4.50943 12.8882 4.50373 13.0438 4.53321 13.1947C4.56269 13.3456 4.62657 13.4877 4.71988 13.6099C4.81406 13.7322 4.9353 13.8311 5.0741 13.8988C5.21289 13.9664 5.36547 14.001 5.51988 13.9999H9.38988L7.57988 20.7399C7.52057 20.9572 7.5364 21.1882 7.62478 21.3954C7.71316 21.6026 7.86893 21.7739 8.06684 21.8816C8.26474 21.9892 8.4932 22.0269 8.71518 21.9884C8.93716 21.95 9.13967 21.8377 9.28988 21.6699L20.1899 9.66985C20.3197 9.52774 20.4057 9.35119 20.4376 9.16139C20.4695 8.97159 20.446 8.77661 20.3699 8.59985V8.59985ZM10.5799 17.2799L11.6499 13.2799C11.6903 13.1315 11.696 12.9759 11.6665 12.825C11.6371 12.6741 11.5732 12.532 11.4799 12.4099C11.3867 12.2888 11.2671 12.1908 11.1301 12.1232C10.9932 12.0556 10.8426 12.0202 10.6899 12.0199H6.84988L8.98988 3.99985H13.9199L12.6499 8.73985C12.6091 8.89091 12.6043 9.04943 12.636 9.20266C12.6676 9.35589 12.7348 9.49955 12.832 9.62211C12.9293 9.74466 13.054 9.84269 13.196 9.90829C13.3381 9.9739 13.4935 10.0053 13.6499 9.99985H17.2199L10.5799 17.2799Z" fill="black"/>
</svg>
